<?xml version="1.0" standalone="no"?>
<!DOCTYPE svg PUBLIC "-//W3C//DTD SVG 20010904//EN"
 "http://www.w3.org/TR/2001/REC-SVG-20010904/DTD/svg10.dtd">
<svg version="1.0" xmlns="http://www.w3.org/2000/svg"
 width="640.000000pt" height="640.000000pt" viewBox="0 0 640.000000 640.000000"
 preserveAspectRatio="xMidYMid meet">
<metadata>
Created by potrace 1.11, written by Peter Selinger 2001-2013
</metadata>
<g transform="translate(0.000000,640.000000) scale(0.100000,-0.100000)"
fill="#000000" stroke="none">
<path d="M3087 6023 c-1 -1 -70 -5 -152 -8 -212 -9 -296 -14 -405 -20 -52 -3
-138 -7 -190 -10 -77 -4 -160 -13 -190 -20 -3 -1 -27 -5 -55 -10 -27 -4 -59
-9 -70 -11 -21 -4 -48 -9 -135 -24 -30 -5 -71 -12 -90 -16 -19 -3 -50 -8 -68
-10 -18 -1 -41 -5 -50 -8 -9 -3 -35 -8 -57 -11 -23 -3 -52 -8 -65 -10 -14 -3
-41 -8 -60 -11 -45 -7 -91 -15 -110 -19 -8 -2 -20 -4 -25 -4 -9 -1 -66 -44
-136 -104 -14 -12 -41 -33 -59 -47 -18 -14 -41 -33 -51 -42 -11 -10 -21 -18
-24 -18 -3 0 -22 -16 -42 -35 -20 -19 -41 -35 -45 -35 -4 0 -15 -8 -25 -18
-10 -11 -97 -81 -193 -158 -178 -141 -214 -174 -355 -330 -93 -103 -197 -216
-240 -260 -61 -63 -68 -74 -76 -116 -5 -24 -11 -54 -14 -68 -3 -14 -8 -41 -11
-60 -3 -19 -8 -38 -9 -41 -2 -3 -7 -28 -11 -55 -3 -27 -8 -52 -10 -55 -2 -4
-6 -24 -10 -44 -6 -37 -9 -53 -19 -97 -12 -50 -13 -92 -2 -104 7 -7 23 -27 37
-45 14 -18 35 -44 48 -58 25 -27 152 -277 152 -298 0 -7 4 -13 9 -13 5 0 13
-10 17 -22 3 -12 49 -110 101 -217 53 -108 110 -228 128 -268 33 -70 36 -73
142 -144 59 -40 110 -75 113 -78 3 -3 17 -12 33 -20 15 -8 27 -18 27 -23 0 -4
4 -8 10 -8 8 0 155 -95 170 -110 22 -22 56 -29 122 -25 81 5 199 12 361 20
l108 6 -6 -173 -5 -173 125 -170 c187 -255 219 -295 239 -295 7 0 21 -9 31
-20 10 -11 24 -20 31 -20 7 0 14 -4 16 -8 2 -4 32 -28 68 -52 36 -25 67 -48
68 -52 2 -5 10 -8 18 -8 8 0 14 -5 14 -11 0 -10 58 -8 115 4 11 3 42 8 68 11
27 4 59 9 70 12 12 2 38 6 57 9 19 3 46 7 60 10 14 3 43 7 65 10 22 2 78 11
125 19 47 9 99 17 115 19 17 3 43 8 58 12 24 6 32 3 57 -26 16 -19 29 -37 30
-41 0 -4 7 -16 15 -25 8 -10 57 -76 109 -148 52 -71 103 -141 114 -155 10 -14
22 -41 25 -60 11 -63 26 -145 31 -166 2 -11 32 -58 65 -105 34 -46 75 -103 91
-126 54 -79 75 -108 80 -113 3 -3 35 -45 70 -95 180 -253 346 -480 352 -483 5
-2 8 -9 8 -15 0 -6 7 -18 16 -28 15 -16 23 -9 136 103 l121 121 -19 56 c-10
31 -18 58 -19 61 0 3 -3 10 -6 15 -5 8 -19 54 -23 75 -1 3 -4 10 -8 15 -3 6
-10 26 -16 45 -5 19 -35 106 -65 192 -31 87 -55 158 -54 159 10 4 58 9 137 14
176 10 196 13 228 29 18 9 35 17 39 17 5 1 19 9 33 18 14 10 130 70 258 135
129 65 245 127 259 139 14 12 35 31 47 42 13 11 51 45 86 75 35 30 68 60 74
65 6 6 42 37 81 70 38 33 75 65 81 70 11 10 118 104 177 155 97 85 123 116
124 148 1 18 6 56 12 85 5 28 15 95 22 147 7 52 15 105 20 116 5 14 60 50 156
103 81 45 155 86 163 91 8 5 31 18 50 28 88 47 156 85 163 92 5 4 10 23 12 41
2 19 6 48 8 64 5 26 14 98 22 175 10 96 16 148 21 176 3 18 6 50 8 71 3 34 7
65 21 183 2 19 6 58 9 85 3 28 8 65 11 83 7 36 10 30 -114 228 -42 66 -81 129
-88 140 -110 183 -260 436 -272 459 -9 16 -19 32 -22 35 -3 3 -23 36 -45 73
-21 38 -47 81 -56 95 -10 15 -21 34 -25 42 -13 29 -67 105 -87 123 -28 25
-207 191 -267 247 -26 25 -89 83 -140 130 -51 47 -107 99 -123 115 -20 19 -76
48 -151 78 -66 27 -129 52 -140 57 -11 5 -45 19 -75 31 -30 12 -74 30 -97 40
-24 11 -46 19 -51 19 -5 0 -27 9 -50 20 -22 11 -47 20 -55 20 -7 0 -17 4 -22
9 -15 12 -315 129 -350 135 -50 8 -89 16 -112 21 -13 3 -26 6 -30 7 -5 1 -26
5 -48 10 -22 6 -51 12 -65 14 -31 6 -159 34 -185 40 -11 3 -33 7 -50 10 -16 3
-48 10 -70 16 -22 5 -51 12 -65 14 -14 3 -38 7 -55 11 -16 4 -34 8 -40 9 -5 1
-55 11 -110 22 -79 17 -218 26 -228 15z"/>
</g>
</svg>
