<?xml version="1.0" encoding="UTF-8" standalone="no"?>
<svg
   xmlns:dc="http://purl.org/dc/elements/1.1/"
   xmlns:cc="http://creativecommons.org/ns#"
   xmlns:rdf="http://www.w3.org/1999/02/22-rdf-syntax-ns#"
   xmlns:svg="http://www.w3.org/2000/svg"
   xmlns="http://www.w3.org/2000/svg"
   xmlns:sodipodi="http://sodipodi.sourceforge.net/DTD/sodipodi-0.dtd"
   xmlns:inkscape="http://www.inkscape.org/namespaces/inkscape"
   sodipodi:docname="languages.svg"
   inkscape:version="1.0 (4035a4fb49, 2020-05-01)"
   id="svg12076"
   version="1.1"
   viewBox="0 0 132.89351 120.44475"
   height="120.44476mm"
   width="132.89351mm">
  <defs
     id="defs12070" />
  <sodipodi:namedview
     inkscape:window-maximized="1"
     inkscape:window-y="0"
     inkscape:window-x="0"
     inkscape:window-height="1080"
     inkscape:window-width="1920"
     showgrid="false"
     inkscape:document-rotation="0"
     inkscape:current-layer="g12760"
     inkscape:document-units="mm"
     inkscape:cy="124.25778"
     inkscape:cx="513.99038"
     inkscape:zoom="0.95217652"
     inkscape:pageshadow="2"
     inkscape:pageopacity="0.0"
     borderopacity="1.0"
     bordercolor="#666666"
     pagecolor="#ffffff"
     id="base" />
  <metadata
     id="metadata12073">
    <rdf:RDF>
      <cc:Work
         rdf:about="">
        <dc:format>image/svg+xml</dc:format>
        <dc:type
           rdf:resource="http://purl.org/dc/dcmitype/StillImage" />
        <dc:title></dc:title>
      </cc:Work>
    </rdf:RDF>
  </metadata>
  <g
     transform="translate(-44.091015,-71.489294)"
     id="layer1"
     inkscape:groupmode="layer"
     inkscape:label="Layer 1">
    <g
       id="g12760">
      <path
         id="path11339"
         fill="#f2f2f2"
         d="m 163.76666,133.44405 c -11.03231,-8.24759 -28.31165,-16.04761 -47.40731,-21.39981 -17.386648,-4.87331 -34.345028,-7.22616 -47.754878,-6.62532 l -0.0698,-1.55947 c 13.56961,-0.6077 30.7039,1.76489 48.246038,6.68172 19.27372,5.40213 36.74026,13.29422 47.92073,21.65264 z"
         style="stroke-width:0.264583" />
      <path
         id="path11341"
         fill="#00b0ff"
         d="m 162.62138,139.7968 a 51.947604,51.947604 0 0 1 -4.49568,21.20925 q -0.3723,0.83826 -0.77582,1.6609 a 52.141072,52.141072 0 0 1 -46.86576,29.2671 c -28.794118,0 -52.137248,-23.34313 -52.137248,-52.13725 q 0,-1.80998 0.12332,-3.59185 0.0585,-0.90616 0.15142,-1.80139 c 2.69896,-26.26063 24.89008,-46.744006 51.862508,-46.744006 28.79413,0 52.13726,23.343116 52.13726,52.137246 z"
         style="stroke-width:0.264583" />
      <path
         id="path11343"
         opacity="0.1"
         d="m 158.1257,161.00605 q -0.3723,0.83826 -0.77582,1.6609 -2.2853,0.2482 -4.81099,0.36059 c -1.39396,0.0624 -2.82852,0.0937 -4.29429,0.0937 -12.80329,0 -28.21188,-2.36335 -43.95295,-6.77472 -17.542458,-4.91718 -33.413098,-11.79492 -44.689738,-19.3673 q -0.576,-0.38635 -1.13172,-0.77426 0.0585,-0.90616 0.15142,-1.80138 0.89679,0.63923 1.84978,1.28 c 11.14394,7.48185 26.85537,14.28624 44.241728,19.15967 15.60371,4.3739 30.86712,6.71696 43.52367,6.71696 q 2.17057,0 4.23187,-0.0921 3.00179,-0.13581 5.65704,-0.46206 z"
         style="stroke-width:0.264583" />
      <path
         id="path11345"
         fill="#f2f2f2"
         d="m 148.24481,161.87269 c -12.80291,2.7e-4 -28.2124,-2.36329 -43.95277,-6.77508 -17.542288,-4.91684 -33.413598,-11.79483 -44.690348,-19.36702 -11.512111,-7.7302 -16.910351,-15.34722 -15.200421,-21.44792 1.709854,-6.10068 10.280618,-9.80241 24.133391,-10.42322 l 0.0698,1.55947 c -6.46907,0.28986 -11.74108,1.25139 -15.669563,2.85781 -3.918953,1.60246 -6.284383,3.76491 -7.030577,6.42729 -0.746199,2.6623 0.150762,5.7391 2.665886,9.14501 2.521297,3.41414 6.525614,6.97562 11.901674,10.58558 11.14266,7.48218 26.85461,14.28669 44.241498,19.15992 15.60409,4.37353 30.86617,6.71716 43.5238,6.71746 q 2.16932,0 4.231,-0.0922 c 6.46914,-0.28995 11.74115,-1.25139 15.66971,-2.85781 3.91896,-1.60246 6.28439,-3.76484 7.03057,-6.42722 1.33982,-4.78054 -2.70933,-10.99221 -11.40181,-17.49069 l 0.93477,-1.25017 c 4.47308,3.34409 7.78424,6.6404 9.84159,9.79715 2.20551,3.38434 2.92169,6.5353 2.12855,9.36506 -1.70995,6.10068 -10.28079,9.80225 -24.1334,10.42315 -1.39394,0.0625 -2.82765,0.0935 -4.29337,0.0935 z"
         style="fill:#c0c0c0;fill-opacity:1;stroke-width:0.264583" />
      <circle
         id="circle11347"
         fill="#f2f2f2"
         r="0.59744239"
         cy="77.659111"
         cx="111.86337"
         style="stroke-width:0.264583" />
      <circle
         id="circle11349"
         fill="#f2f2f2"
         r="0.59744239"
         cy="103.15371"
         cx="32.602745"
         style="stroke-width:0.264583" />
      <circle
         id="circle11351"
         fill="#f2f2f2"
         r="0.59744239"
         cy="143.38145"
         cx="30.412123"
         style="stroke-width:0.264583" />
      <circle
         id="circle11353"
         fill="#f2f2f2"
         r="0.39829582"
         cy="81.243767"
         cx="152.29025"
         style="stroke-width:0.264583" />
      <circle
         id="circle11355"
         fill="#f2f2f2"
         r="0.39829582"
         cy="137.40704"
         cx="200.28473"
         style="stroke-width:0.264583" />
      <circle
         id="circle11357"
         fill="#f2f2f2"
         r="0.39829582"
         cy="119.08548"
         cx="178.37854"
         style="stroke-width:0.264583" />
      <circle
         id="circle11359"
         fill="#f2f2f2"
         r="0.39829582"
         cy="90.205376"
         cx="68.648407"
         style="stroke-width:0.264583" />
      <circle
         id="circle11361"
         fill="#f2f2f2"
         r="0.39829582"
         cy="132.03006"
         cx="176.98451"
         style="stroke-width:0.264583" />
      <circle
         id="circle11363"
         fill="#f2f2f2"
         r="0.39829582"
         cy="172.05867"
         cx="35.191666"
         style="stroke-width:0.264583" />
      <circle
         id="circle11365"
         fill="#f2f2f2"
         r="0.39829582"
         cy="188.38873"
         cx="58.89019"
         style="stroke-width:0.264583" />
      <polygon
         id="polygon11367"
         fill="#f2f2f2"
         points="673.413,40.826 673.413,38.749 672.299,38.749 672.299,40.826 670.221,40.826 670.221,41.941 672.299,41.941 672.299,44.018 673.413,44.018 673.413,41.941 675.49,41.941 675.49,40.826 "
         transform="matrix(0.26458333,0,0,0.26458333,-85.380772,50.180534)" />
      <polygon
         id="polygon11369"
         fill="#f2f2f2"
         points="897.712,552.65 897.712,550.573 896.598,550.573 896.598,552.65 894.521,552.65 894.521,553.765 896.598,553.765 896.598,555.842 897.712,555.842 897.712,553.765 899.79,553.765 899.79,552.65 "
         transform="matrix(0.26458333,0,0,0.26458333,-85.380772,50.180534)" />
      <polygon
         id="polygon11371"
         fill="#f2f2f2"
         points="1036.959,521.79 1036.959,519.713 1035.844,519.713 1035.844,521.79 1033.767,521.79 1033.767,522.905 1035.844,522.905 1035.844,524.982 1036.959,524.982 1036.959,522.905 1039.036,522.905 1039.036,521.79 "
         transform="matrix(0.26458333,0,0,0.26458333,-85.380772,50.180534)" />
      <circle
         id="circle11373"
         fill="#3f3d56"
         r="4.3812404"
         cy="98.971611"
         cx="111.26592"
         style="stroke-width:0.264583" />
      <circle
         id="circle11375"
         fill="#3f3d56"
         r="4.3812404"
         cy="131.03432"
         cx="77.610031"
         style="stroke-width:0.264583" />
      <circle
         id="circle11377"
         fill="#3f3d56"
         r="4.3812404"
         cy="175.04587"
         cx="126.00282"
         style="stroke-width:0.264583" />
      <circle
         id="circle11379"
         fill="#3f3d56"
         r="4.3812404"
         cy="137.80534"
         cx="111.26592"
         style="stroke-width:0.264583" />
      <circle
         id="circle11381"
         fill="#3f3d56"
         r="4.3812404"
         cy="161.90215"
         cx="79.800644"
         style="stroke-width:0.264583" />
      <circle
         id="circle11383"
         fill="#3f3d56"
         r="4.3812404"
         cy="114.30595"
         cx="134.76529"
         style="stroke-width:0.264583" />
      <circle
         id="circle11385"
         fill="#3f3d56"
         r="4.3812404"
         cy="143.9789"
         cx="149.30304"
         style="stroke-width:0.264583" />
      <circle
         id="circle11387"
         fill="#ffffff"
         r="5.775269"
         cy="118.68719"
         cx="111.26592"
         style="stroke-width:0.264583" />
      <path
         id="path11389"
         fill="#ff6584"
         d="m 111.26591,110.323 a 8.1650417,8.1650417 0 0 0 -8.16504,8.16504 c 0,4.50942 8.16504,19.31728 8.16504,19.31728 0,0 8.16505,-14.80786 8.16505,-19.31728 a 8.1650417,8.1650417 0 0 0 -8.16505,-8.16504 z m 0,12.14798 a 3.7838062,3.7838062 0 1 1 3.78381,-3.78381 3.7838062,3.7838062 0 0 1 -3.78381,3.78382 z"
         style="stroke-width:0.264583" />
      <circle
         id="circle11391"
         fill="#ffffff"
         r="5.775269"
         cy="143.38145"
         cx="79.800644"
         style="stroke-width:0.264583" />
      <path
         id="path11393"
         fill="#ff6584"
         d="m 79.800652,135.01727 a 8.1650417,8.1650417 0 0 0 -8.16504,8.16504 c 0,4.50943 8.16504,19.31728 8.16504,19.31728 0,0 8.16504,-14.80785 8.16504,-19.31728 a 8.1650417,8.1650417 0 0 0 -8.16504,-8.16504 z m 0,12.14798 a 3.7838062,3.7838062 0 1 1 3.78381,-3.78381 3.7838062,3.7838062 0 0 1 -3.78381,3.78381 z"
         style="stroke-width:0.264583" />
      <circle
         id="circle11395"
         fill="#ffffff"
         r="5.775269"
         cy="125.45821"
         cx="149.30304"
         style="stroke-width:0.264583" />
      <path
         id="path11397"
         fill="#ff6584"
         d="m 149.30305,117.09401 a 8.1650417,8.1650417 0 0 0 -8.16504,8.16504 c 0,4.50943 8.16504,19.31729 8.16504,19.31729 0,0 8.16504,-14.80786 8.16504,-19.31729 a 8.1650417,8.1650417 0 0 0 -8.16504,-8.16504 z m 0,12.14799 a 3.7838062,3.7838062 0 1 1 3.78381,-3.78381 3.7838062,3.7838062 0 0 1 -3.78381,3.78381 z"
         style="stroke-width:0.264583" />
      <circle
         id="circle11399"
         fill="#ffffff"
         r="5.775269"
         cy="79.853477"
         cx="111.26592"
         style="stroke-width:0.264583" />
      <path
         id="path11401"
         fill="#ff6584"
         d="m 111.26591,71.489294 a 8.1650417,8.1650417 0 0 0 -8.16504,8.16504 c 0,4.50943 8.16504,19.31729 8.16504,19.31729 0,0 8.16505,-14.80786 8.16505,-19.31729 a 8.1650417,8.1650417 0 0 0 -8.16505,-8.16504 z m 0,12.14798 a 3.7838062,3.7838062 0 1 1 3.78381,-3.7838 3.7838062,3.7838062 0 0 1 -3.78381,3.7838 z"
         style="stroke-width:0.264583" />
      <circle
         id="circle11403"
         fill="#ffffff"
         r="5.775269"
         cy="156.52518"
         cx="126.00282"
         style="stroke-width:0.264583" />
      <path
         id="path11405"
         fill="#ff6584"
         d="m 126.00281,148.16099 a 8.1650417,8.1650417 0 0 0 -8.16504,8.16504 c 0,4.50942 8.16504,19.31728 8.16504,19.31728 0,0 8.16504,-14.80786 8.16504,-19.31728 a 8.1650417,8.1650417 0 0 0 -8.16504,-8.16504 z m 0,12.14798 a 3.7838062,3.7838062 0 1 1 3.78381,-3.78381 3.7838062,3.7838062 0 0 1 -3.78381,3.78381 z"
         style="stroke-width:0.264583" />
      <circle
         id="circle11407"
         fill="#ffffff"
         r="5.775269"
         cy="112.11533"
         cx="77.610031"
         style="stroke-width:0.264583" />
      <path
         id="path11409"
         fill="#ff6584"
         d="m 77.610032,103.75115 a 8.1650417,8.1650417 0 0 0 -8.16504,8.16504 c 0,4.50942 8.16504,19.31728 8.16504,19.31728 0,0 8.16504,-14.80786 8.16504,-19.31728 a 8.1650417,8.1650417 0 0 0 -8.16504,-8.16504 z m 0,12.14798 a 3.7838062,3.7838062 0 1 1 3.78381,-3.78381 3.7838062,3.7838062 0 0 1 -3.78381,3.78381 z"
         style="stroke-width:0.264583" />
      <circle
         id="circle11411"
         fill="#ffffff"
         r="5.775269"
         cy="95.984398"
         cx="134.76529"
         style="stroke-width:0.264583" />
      <path
         id="path11413"
         fill="#ff6584"
         d="m 134.76529,87.620224 a 8.1650417,8.1650417 0 0 0 -8.16504,8.16504 c 0,4.509426 8.16504,19.317276 8.16504,19.317276 0,0 8.16504,-14.80785 8.16504,-19.317276 a 8.1650417,8.1650417 0 0 0 -8.16504,-8.16504 z m 0,12.14798 a 3.7838062,3.7838062 0 1 1 3.78381,-3.7838 3.7838062,3.7838062 0 0 1 -3.78381,3.7838 z"
         style="stroke-width:0.264583" />
    </g>
  </g>
</svg>
