<?xml version="1.0" encoding="UTF-8" standalone="no"?>
<svg
  xmlns:dc="http://purl.org/dc/elements/1.1/"
  xmlns:cc="http://creativecommons.org/ns#"
  xmlns:rdf="http://www.w3.org/1999/02/22-rdf-syntax-ns#"
  xmlns:svg="http://www.w3.org/2000/svg"
  xmlns="http://www.w3.org/2000/svg"
  xmlns:xlink="http://www.w3.org/1999/xlink"
  xmlns:sodipodi="http://sodipodi.sourceforge.net/DTD/sodipodi-0.dtd"
  xmlns:inkscape="http://www.inkscape.org/namespaces/inkscape"
  id="03030b4a-9996-4111-83fa-29dc66776d7b"
  data-name="Layer 1"
  width="740.79999"
  height="652.13165"
  viewBox="0 0 740.8 652.13164"
  version="1.1"
  sodipodi:docname="front.svg"
  inkscape:version="1.0 (4035a4fb49, 2020-05-01)">
  <metadata
    id="metadata1836">
    <rdf:RDF>
      <cc:Work
        rdf:about="">
        <dc:format>image/svg+xml</dc:format>
        <dc:type
          rdf:resource="http://purl.org/dc/dcmitype/StillImage" />
        <dc:title>roganize resume</dc:title>
      </cc:Work>
    </rdf:RDF>
  </metadata>
  <sodipodi:namedview
    inkscape:document-rotation="0"
    pagecolor="#ffffff"
    bordercolor="#666666"
    borderopacity="1"
    objecttolerance="10"
    gridtolerance="10"
    guidetolerance="10"
    inkscape:pageopacity="0"
    inkscape:pageshadow="2"
    inkscape:window-width="1920"
    inkscape:window-height="1080"
    id="namedview1834"
    showgrid="false"
    inkscape:zoom="0.93758522"
    inkscape:cx="150.59683"
    inkscape:cy="40.555437"
    inkscape:window-x="0"
    inkscape:window-y="0"
    inkscape:window-maximized="1"
    inkscape:current-layer="g1110">
    <inkscape:grid
      type="xygrid"
      id="grid2399"
      originx="-164.14"
      originy="-87.829998" />
  </sodipodi:namedview>
  <defs
    id="defs1603">
    <linearGradient
      id="c172ced9-c526-43de-8081-a3b8b4d2db3a"
      x1="534.53998"
      y1="548.83002"
      x2="534.53998"
      y2="87.830002"
      gradientUnits="userSpaceOnUse">
      <stop
        offset="0"
        stop-color="gray"
        stop-opacity="0.25"
        id="stop1593" />
      <stop
        offset="0.54"
        stop-color="gray"
        stop-opacity="0.12"
        id="stop1595" />
      <stop
        offset="1"
        stop-color="gray"
        stop-opacity="0.1"
        id="stop1597" />
    </linearGradient>
    <linearGradient
      id="b55b1914-9010-4651-994a-27bfb9322cf9"
      x1="1028.8199"
      y1="815.40997"
      x2="1028.8199"
      y2="407.41"
      xlink:href="#c172ced9-c526-43de-8081-a3b8b4d2db3a" />
    <linearGradient
      id="f578ae08-57d5-484c-bc58-a6933ab5fa51"
      x1="799.21002"
      y1="589.03003"
      x2="799.21002"
      y2="340.82999"
      xlink:href="#c172ced9-c526-43de-8081-a3b8b4d2db3a"
      gradientTransform="translate(-164.14,-87.83)" />
    <linearGradient
      id="c6440606-d3b5-4d29-adcc-566625c77aaa"
      x1="2225.3501"
      y1="817.54999"
      x2="2225.3501"
      y2="423.13"
      gradientTransform="translate(-1556)"
      xlink:href="#c172ced9-c526-43de-8081-a3b8b4d2db3a" />
    <linearGradient
      inkscape:collect="always"
      xlink:href="#c172ced9-c526-43de-8081-a3b8b4d2db3a"
      id="linearGradient7509"
      gradientUnits="userSpaceOnUse"
      x1="534.53998"
      y1="548.83002"
      x2="534.53998"
      y2="87.830002" />
  </defs>
  <title
    id="title1605">roganize resume</title>
  <polygon
    points="164.14,548.83 904.94,548.83 904.94,123.8 904.94,87.83 164.14,87.83 164.14,123.8 "
    fill="url(#c172ced9-c526-43de-8081-a3b8b4d2db3a)"
    id="polygon1627"
    style="fill:url(#linearGradient7509)"
    transform="translate(-164.14,-87.83)" />
  <rect
    x="7.8300014"
    y="4.869997"
    width="725.15002"
    height="35.209999"
    fill="#f6f7f9"
    id="rect1629" />
  <g
    opacity="0.2"
    id="g1633"
    style="opacity:0.31;fill:#f5f5f5;fill-opacity:1"
    transform="translate(-164.14,-87.83)">
    <rect
      x="171.97"
      y="92.699997"
      width="725.15002"
      height="35.209999"
      fill="#ff0080"
      id="rect1631"
      style="fill:#f5f5f5;fill-opacity:1" />
  </g>
  <rect
    transform="scale(-1,1)"
    x="-362.57501"
    y="1000000"
    width="725.15002"
    height="0"
    fill="#f6f7f9"
    id="rect1635"
    style="fill:#ffffff;fill-opacity:1;stroke-width:0" />
  <circle
    cx="25.220001"
    cy="22.259996"
    r="7.8299999"
    fill="#f6f7f9"
    id="circle1637"
    style="fill:#ff0000" />
  <circle
    cx="46.080002"
    cy="22.259996"
    r="7.8299999"
    fill="#f6f7f9"
    id="circle1639"
    style="fill:#ffcc00" />
  <circle
    cx="66.949997"
    cy="22.259996"
    r="7.8299999"
    fill="#f6f7f9"
    id="circle1641"
    style="fill:#69f0ae;fill-opacity:1" />
  <g
    opacity="0.2"
    id="g1649"
    transform="translate(-163.53464,-35.253322)">
    <rect
      x="665.83002"
      y="179.64999"
      width="195.63"
      height="26.950001"
      fill="#ff0080"
      id="rect1647" />
  </g>
  <g
    transform="translate(-164.14,-87.83)"
    id="g1110"
    style="opacity:1">
    <rect
      x="269.78"
      y="434.41"
      width="26.08"
      height="86.080002"
      fill="#ff0080"
      id="bar1"
      className="bar1"
      style="fill:#00ffff;fill-opacity:1;opacity:0.2">
        <animate repeatCount="indefinite" attributeName="height" from="10" to="100" dur="5s" fill="freeze"/>
        <animate repeatCount="indefinite" attributeName="y" from="510.67001" to="420.67001" dur="5s" fill="freeze"/>
      </rect>
    <rect
      x="320.20999"
      y="372.67001"
      width="26.08"
      height="147.81"
      fill="#ff0080"
      id="bar2"
      class="bar2"
      style="fill:#00ffff;opacity:0.4">
        <animate repeatCount="indefinite" attributeName="height" from="10" to="200" dur="5s" fill="freeze"/>
        <animate repeatCount="indefinite" attributeName="y" from="510.67001" to="320.67001" dur="5s" fill="freeze"/>
    </rect>
    <rect
      x="370.64001"
      y="310.94"
      width="26.08"
      height="209.53999"
      fill="#ff0080"
      id="bar3"
      class="bar3"
      style="fill:#00ffff;opacity:0.2">
        <animate repeatCount="indefinite" attributeName="height" from="10" to="220" dur="5s" fill="freeze"/>
        <animate repeatCount="indefinite" attributeName="y" from="510.67001" to="300.67001" dur="5s" fill="freeze"/>
    </rect>
    <rect
      x="421.07001"
      y="330.94"
      width="26.08"
      height="189.55"
      fill="#ff0080"
      id="bar4"
      class="bar4"
      style="fill:#00ffff;opacity:0.1">
        <animate repeatCount="indefinite" attributeName="height" from="10" to="170" dur="5s" fill="freeze"/>
        <animate repeatCount="indefinite" attributeName="y" from="510.67001" to="350.67001" dur="5s" fill="freeze"/>
    </rect>
    <rect
      x="471.5"
      y="390.06"
      width="26.08"
      height="130.42"
      fill="#ff0080"
      id="bar5"
      class="bar5"
      style="fill:#00ffff;fill-opacity:1;opacity:0.2">
        <animate repeatCount="indefinite" attributeName="height" from="10" to="120" dur="5s" fill="freeze"/>
        <animate repeatCount="indefinite" attributeName="y" from="510.67001" to="400.67001" dur="5s" fill="freeze"/>
    </rect>
  </g>
  <rect
    x="65.524994"
    y="-594.65039"
    width="15.071456"
    height="86.080002"
    fill="#ff0080"
    id="rect1651-3"
    style="opacity:0.2;fill:#979797;fill-opacity:1;stroke-width:0.760193"
    transform="rotate(90)" />
  <rect
    transform="rotate(90)"
    style="opacity:0.2;fill:#979797;fill-opacity:1;stroke-width:0.760193"
    id="rect1651-3-6"
    fill="#ff0080"
    height="86.080002"
    width="15.071456"
    y="-692.30865"
    x="65.682373" />
  <g
    opacity="0.2"
    id="g1665"
    transform="translate(-164.14,-87.83)">
    <rect
      x="665.40002"
      y="265.73001"
      width="195.63"
      height="240.41"
      fill="#ff0080"
      id="rect1663" />
  </g>
  <rect
    x="534.08997"
    y="252.99998"
    width="201.97"
    height="248.2"
    fill="url(#f578ae08-57d5-484c-bc58-a6933ab5fa51)"
    id="rect1725"
    style="fill:url(#f578ae08-57d5-484c-bc58-a6933ab5fa51)" />
  <rect
    x="537.26001"
    y="256.90002"
    width="195.63"
    height="240.41"
    fill="#ff0080"
    id="rect1727" />
  <rect
    x="550.39996"
    y="278"
    width="40"
    height="40"
    fill="#e8eaf1"
    id="rect1729"
    style="fill:#f6f8ff;fill-opacity:1" />
  <rect
    x="570.39996"
    y="342"
    width="142"
    height="8"
    fill="#e8eaf1"
    id="rect1731"
    style="fill:#f6f8ff;fill-opacity:1" />
  <rect
    x="570.39996"
    y="359"
    width="142"
    height="8"
    fill="#e8eaf1"
    id="rect1733"
    style="fill:#f6f8ff;fill-opacity:1" />
  <rect
    x="570.39996"
    y="376"
    width="142"
    height="8"
    fill="#e8eaf1"
    id="rect1735"
    style="fill:#f6f8ff;fill-opacity:1" />
  <rect
    x="570.39996"
    y="393"
    width="142"
    height="8"
    fill="#e8eaf1"
    id="rect1737"
    style="fill:#f6f8ff;fill-opacity:1" />
  <rect
    x="570.39996"
    y="410"
    width="142"
    height="8"
    fill="#e8eaf1"
    id="rect1739"
    style="fill:#f6f8ff;fill-opacity:1" />
  <rect
    x="570.39996"
    y="427.00003"
    width="142"
    height="8"
    fill="#e8eaf1"
    id="rect1741"
    style="fill:#f6f8ff;fill-opacity:1" />
  <rect
    x="570.39996"
    y="444.00003"
    width="142"
    height="8"
    fill="#e8eaf1"
    id="rect1743"
    style="fill:#f6f8ff;fill-opacity:1" />
  <path
    id="path3743"
    fill="#2f2e41"
    d="m 449.06553,164.50688 c 0,0 -13.53796,-13.39858 -31.74415,11.85258 -18.20619,25.25114 -46.68253,37.61905 -53.21808,47.41031 0,0 27.07586,-12.36792 36.41237,-17.5212 9.3365,-5.15328 8.86966,-4.12264 8.86966,-4.12264 0,0 -12.60426,9.79129 -14.93839,19.58253 -2.33413,9.79124 -0.46683,18.03653 -4.66826,27.8278 -4.20142,9.79126 80.29394,6.69927 80.29394,6.69927 0,0 8.40282,-15.97521 6.06873,-32.46576 -2.33416,-16.49054 -0.93366,-57.20158 -27.07582,-59.26289 z"
    style="stroke-width:0.707975" />
  <path
    id="path3745"
    fill="#ffb9b9"
    d="m 422.45646,204.18725 c 0,0 3.26777,25.25115 -10.73698,30.91978 -14.00476,5.66862 -8.86967,13.39857 -8.86967,13.39857 l 21.00715,11.33725 22.40766,-7.72994 7.46916,-12.36793 c 0,0 -12.13748,-3.09197 -8.86966,-12.36792 3.26783,-9.27595 4.20141,-12.36793 4.20141,-12.36793 z"
    style="stroke-width:0.707975" />
  <path
    id="path3747"
    opacity="0.1"
    d="m 422.45646,204.18725 c 0,0 3.26777,25.25115 -10.73698,30.91978 -14.00476,5.66862 -8.86967,13.39857 -8.86967,13.39857 l 21.00715,11.33725 22.40766,-7.72994 7.46916,-12.36793 c 0,0 -12.13748,-3.09197 -8.86966,-12.36792 3.26783,-9.27595 4.20141,-12.36793 4.20141,-12.36793 z"
    style="stroke-width:0.707975" />
  <path
    id="path3749"
    fill="#ffb9b9"
    d="m 481.27643,276.3334 c 0,0 -3.26775,47.41031 -2.33416,49.47164 0.93367,2.06133 0,73.69212 0,73.69212 0,0 6.53557,38.64972 -1.86725,40.71105 -8.4029,2.06131 -6.53557,-43.2877 -6.53557,-43.2877 l -8.4029,-59.77822 0.93366,-59.26293 z"
    style="stroke-width:0.707975" />
  <path
    id="path3751"
    opacity="0.1"
    d="m 481.27643,276.3334 c 0,0 -3.26775,47.41031 -2.33416,49.47164 0.93367,2.06133 0,73.69212 0,73.69212 0,0 6.53557,38.64972 -1.86725,40.71105 -8.4029,2.06131 -6.53557,-43.2877 -6.53557,-43.2877 l -8.4029,-59.77822 0.93366,-59.26293 z"
    style="stroke-width:0.707975" />
  <path
    id="path3753"
    fill="#ffb9b9"
    d="m 390.24552,419.07969 c 0,0 -15.40525,64.41619 -14.93842,95.8513 0.46683,31.4351 6.53556,75.23812 6.53556,75.23812 0,0 0.93365,19.06719 -0.46682,21.12852 -1.40049,2.06132 7.00237,10.82192 7.00237,10.82192 l 8.86966,-5.66863 3.26778,-4.12264 v -3.60732 c 0,0 -5.13508,-17.52121 -0.93365,-31.4351 4.20143,-13.91391 6.53555,-48.95631 2.33415,-59.77824 l 28.94316,-94.82064 z"
    style="stroke-width:0.707975" />
  <path
    id="path3755"
    fill="#2f2e41"
    d="m 389.31186,613.87427 c 0,0 -5.6019,-7.72994 -9.3365,-5.1533 -3.73461,2.57665 -9.80333,20.09785 -9.80333,20.09785 0,0 -21.00714,22.15918 -6.06873,23.18983 14.93841,1.03068 21.47396,-4.63796 23.34126,-8.76059 1.86731,-4.12263 19.13984,-14.94456 19.13984,-14.94456 0,0 -1.8673,-19.58253 -4.66826,-20.09785 -2.80094,-0.51533 -7.00237,7.72993 -7.00237,7.72993 z"
    style="stroke-width:0.707975" />
  <path
    id="path3757"
    fill="#ffb9b9"
    d="m 441.12948,423.20233 v 63.90087 a 178.98103,197.57759 0 0 0 1.40048,23.18982 c 1.40044,11.33725 -7.93605,95.85131 -7.93605,95.85131 l 0.93366,14.94455 11.67064,-1.03066 1.4005,-12.88324 16.80566,-56.68624 c 0,0 5.60191,-34.52708 2.80098,-47.41032 -2.80098,-12.88324 14.47157,-95.33598 14.47157,-95.33598 z"
    style="stroke-width:0.707975" />
  <path
    id="path3759"
    fill="#2f2e41"
    d="m 431.79298,617.48158 3.45744,-0.82976 c 0,0 2.6113,-6.38486 5.87906,-4.83887 a 35.241207,38.902854 0 0 1 6.49783,4.29795 l 1.43822,2.91661 c 0,0 3.26776,7.72995 7.46917,12.88324 4.20142,5.1533 8.86967,16.49056 1.86732,17.52121 -7.00232,1.03066 -16.33888,1.54599 -19.1398,-1.03065 -2.80099,-2.57665 -0.93367,-6.69929 -3.73465,-7.72996 -2.80093,-1.03065 -5.13509,-4.12263 -4.66826,-5.1533 0.46684,-1.03064 0.93367,-18.03647 0.93367,-18.03647 z"
    style="stroke-width:0.707975" />
  <path
    id="path3763"
    fill="#ff0080"
    d="m 401.91614,239.22966 6.16631,-2.37646 c 0,0 -2.43171,4.43777 10.63941,7.01445 13.07112,2.57669 26.60774,3.48887 32.6771,-4.95485 0,0 2.33482,-1.2291 5.60258,2.37821 3.26774,3.60731 5.13507,2.57668 5.13507,2.57668 l -2.33415,13.39858 -4.66825,24.73584 -6.06874,18.55187 -17.27249,-4.12264 -18.67302,-14.94456 -7.00238,-20.09795 v -18.55185 z"
    style="stroke-width:0.707975" />
  <path
    id="path3765"
    fill="#ff0080"
    d="m 458.86886,246.44431 4.66825,-3.60732 c 0,0 15.87207,3.09198 16.80565,11.33726 l -12.13741,25.76648 a 26.573709,29.334782 0 0 1 -0.46683,22.15916 c -4.66825,11.85258 -4.20141,14.42923 -4.20141,14.42923 l -3.26783,15.45989 -59.28678,5.1533 c 0,0 -2.33415,-6.18397 -3.26778,-7.21462 -0.93362,-1.03068 -0.93365,-4.63797 0,-4.63797 0.93364,0 0,-1.54599 -0.93365,-3.09198 -0.93364,-1.54598 -1.40048,-2.06132 0,-4.12263 1.40048,-2.06132 -2.33416,-20.61319 -2.33416,-20.61319 v -20.09788 l -15.87206,-23.18982 c 0,0 5.60191,-9.27593 8.40286,-10.30659 2.80096,-1.03065 16.12494,-5.09526 16.12494,-5.09526 l 3.0149,4.90046 4.20142,37.29849 6.06874,22.67451 25.55239,-4.79267 9.92635,-18.39716 6.53557,-21.64384 z"
    style="stroke-width:0.707975" />
  <path
    id="path3767"
    fill="#ff0080"
    d="m 476.60819,251.08224 3.73457,3.09198 c 0,0 3.26783,28.85845 2.33416,30.91978 -0.93359,2.06132 -17.27249,4.12264 -17.73932,3.09197 -0.46683,-1.03066 11.67059,-37.10373 11.67059,-37.10373 z"
    style="stroke-width:0.707975" />
  <path
    id="path3769"
    fill="#ffb9b9"
    d="m 375.3071,282.51734 c 0,0 3.26778,47.41033 2.33416,49.47165 -0.93362,2.06132 0,73.69213 0,73.69213 0,0 -6.53556,38.64972 1.8673,40.71103 8.40286,2.06131 6.53555,-43.28768 6.53555,-43.28768 l 8.40286,-59.77823 -0.93365,-59.26293 z"
    style="stroke-width:0.707975" />
  <path
    id="path3771"
    fill="#2f2e41"
    d="m 399.58202,236.65302 4.66825,34.01175 c 0,0 -4.20143,50.5023 -3.26777,60.80889 l 0.93364,3.09197 c 0,0 -1.8673,-1.03065 -2.33415,1.03067 -0.46685,2.06131 0,8.7606 0,8.7606 0,0 -2.80095,3.09199 -3.73461,20.09786 -0.93365,17.00587 -12.13744,57.7169 -7.93602,59.26292 4.20142,1.54602 29.40999,9.27593 42.94795,7.72995 13.53791,-1.54598 62.08777,-19.58252 61.62094,-24.22049 -0.46683,-4.63797 -23.80813,-70.08482 -23.80813,-70.08482 0,0 -4.20142,-7.72995 -4.20142,-8.76061 0,-1.03065 5.60192,-5.1533 4.20142,-9.27593 -1.40043,-4.12264 -8.86966,-47.41033 -8.86966,-47.41033 l 5.13508,-30.91977 -7.00234,-2.06132 -5.13508,29.88912 c 0,0 -20.07348,10.82192 -41.08065,1.03066 l -4.66825,-35.04241 z"
    style="stroke-width:0.707975" />
  <path
    id="path3773"
    fill="#ff0080"
    d="m 382.30949,252.62824 -3.73461,1.54598 c 0,0 -7.00238,32.46576 -5.13507,32.46576 1.8673,0 24.27491,3.09198 24.27491,2.06133 0,-1.03066 -4.20143,-26.28181 -4.20143,-26.28181 z"
    style="stroke-width:0.707975" />
  <circle
    style="stroke-width:0.707975"
    cx="441.12952"
    cy="199.03395"
    fill="#ffb9b9"
    id="circle3761"
    r="0" />
  <ellipse
    id="circle3761-8"
    fill="#ffb9b9"
    cy="197.25514"
    cx="440.9729"
    rx="20.722769"
    ry="19.472328"
    style="stroke-width:0.604073" />
  <path
    id="path3775"
    fill="#2f2e41"
    d="m 423.39011,177.39013 c 0,0 34.54509,26.28181 43.88158,14.42923 9.3365,-11.85257 -16.3389,-22.15916 -16.3389,-22.15916 l -21.47397,-2.57668 z"
    style="stroke-width:0.707975" />
  <rect
    transform="rotate(90)"
    style="opacity:0.2;fill:#979797;fill-opacity:1;stroke-width:0.760193"
    id="rect1651-3-7"
    fill="#ff0080"
    height="86.080002"
    width="15.071456"
    y="-493.52454"
    x="64.991013" />
  <g
    style="opacity:0.3"
    transform="matrix(0.10647737,0,0,0.0961451,22.950312,59.288999)"
    id="XMLID_511_">
    <g
      id="g1228">
      <path
        d="m 470.025,244.991 c 12.987,-16.198 18.582,-37.435 14.796,-58.317 -3.962,-21.851 -17.372,-40.168 -36.264,-50.546 6.181,-21.546 2.122,-45.188 -11.654,-63.562 -13.628,-18.171 -35.332,-29.02 -58.059,-29.02 -3.224,0 -6.431,0.215 -9.607,0.642 C 358.08,17.889 332.001,0 302.501,0 279.105,0 258.264,11.137 244.999,28.389 231.734,11.137 210.893,0 187.497,0 c -29.513,0 -55.602,17.905 -66.751,44.224 -3.184,-0.426 -6.401,-0.64 -9.641,-0.64 -23.068,0 -44.221,10.571 -58.034,29.006 -13.766,18.374 -17.82,42.014 -11.641,63.557 -18.893,10.377 -32.301,28.698 -36.263,50.562 -3.777,20.877 1.822,42.106 14.806,58.3 -12.987,16.198 -18.583,37.434 -14.796,58.318 3.962,21.851 17.372,40.167 36.263,50.544 -6.181,21.547 -2.122,45.189 11.654,63.563 13.629,18.171 35.333,29.02 58.059,29.02 3.223,0 6.43,-0.215 9.606,-0.642 11.158,26.3 37.236,44.188 66.738,44.188 23.395,0 44.236,-11.137 57.502,-28.389 13.265,17.252 34.106,28.389 57.502,28.389 29.514,0 55.603,-17.905 66.751,-44.224 3.184,0.426 6.401,0.64 9.641,0.64 23.068,0 44.223,-10.572 58.035,-29.006 13.765,-18.374 17.819,-42.014 11.64,-63.556 18.894,-10.378 32.301,-28.699 36.265,-50.563 3.775,-20.877 -1.824,-42.106 -14.808,-58.3 z M 229.999,417.5 c 0,23.435 -19.067,42.5 -42.502,42.5 -20.303,0 -37.839,-14.45 -41.697,-34.359 l -0.204,-1.052 c -0.39,-2.328 -0.597,-4.707 -0.597,-7.089 0,-6.921 1.652,-13.585 4.753,-19.555 11.278,6.928 24.273,10.643 37.843,10.642 l -0.002,-30 c -11.353,0.001 -22.026,-4.42 -30.054,-12.448 -8.026,-8.026 -12.447,-18.697 -12.448,-30.049 l -30,0.004 c 0.001,14.705 4.361,28.736 12.45,40.635 -7.921,11.596 -12.275,25.229 -12.512,39.542 -1.286,0.119 -2.578,0.183 -3.875,0.183 -13.533,0 -25.947,-6.203 -34.058,-17.018 -9.982,-13.313 -11.259,-31.352 -3.253,-45.955 l 3.562,-6.497 -6.065,-13.821 -6.733,-1.972 C 49.046,326.634 37.586,313.907 34.697,297.975 32.168,284.026 36.798,269.819 46.827,260 h 69.731 c 2.855,13.641 9.588,26.178 19.671,36.263 13.153,13.105 31.28,21.237 51.27,21.237 h 42.5 z m 0,-130 h -42.5 c -22.631,0 -41.183,-17.782 -42.429,-40.108 -0.004,-0.074 -0.012,-0.147 -0.016,-0.222 -0.036,-0.719 -0.055,-1.442 -0.055,-2.169 0,-11.353 4.422,-22.025 12.449,-30.051 L 136.236,193.735 C 126.15,203.82 119.416,216.358 116.559,230 h -69.75 c -10.017,-9.816 -14.643,-24.012 -12.123,-37.946 2.889,-15.94 14.35,-28.672 29.91,-33.227 l 6.735,-1.971 6.063,-13.821 -3.562,-6.496 c -8.005,-14.603 -6.731,-32.644 3.246,-45.96 8.093,-10.801 20.495,-16.995 34.025,-16.995 1.316,0 2.625,0.065 3.925,0.185 0.244,14.299 4.597,27.917 12.511,39.503 -8.089,11.899 -12.449,25.929 -12.45,40.635 l 30,0.004 c 0.001,-11.352 4.422,-22.022 12.448,-30.049 8.028,-8.027 18.7,-12.448 30.051,-12.448 0.003,0 0.005,-30 0.005,-30 -13.573,0 -26.565,3.715 -37.843,10.642 -3.1,-5.971 -4.751,-12.635 -4.751,-19.556 0,-2.373 0.206,-4.744 0.593,-7.063 l 0.209,-1.077 C 149.658,44.45 167.195,30 187.497,30 c 23.435,0 42.502,19.065 42.502,42.5 z m 30,-214.998 C 259.999,49.065 279.065,30 302.501,30 c 20.303,0 37.839,14.45 41.698,34.36 l 0.201,1.039 c 0.391,2.332 0.599,4.715 0.599,7.101 0,6.921 -1.651,13.585 -4.753,19.555 -11.278,-6.927 -24.273,-10.643 -37.843,-10.642 l 0.002,30 c 11.353,-10e-4 22.025,4.42 30.054,12.449 8.026,8.024 12.446,18.696 12.448,30.048 l 30,-0.004 c -0.002,-14.706 -4.362,-28.737 -12.45,-40.635 7.921,-11.596 12.275,-25.229 12.512,-39.541 1.286,-0.119 2.578,-0.183 3.876,-0.183 13.533,0 25.946,6.203 34.058,17.018 9.981,13.313 11.259,31.352 3.253,45.955 l -3.57,6.513 3.015,6.787 3.06,7.019 6.733,1.972 c 15.561,4.557 27.021,17.284 29.909,33.217 2.53,13.948 -2.1,28.156 -12.131,37.974 h -69.731 c -2.855,-13.641 -9.588,-26.178 -19.672,-36.264 -13.154,-13.104 -31.28,-21.236 -51.27,-21.236 h -42.5 z m 195.312,225.443 c -2.89,15.941 -14.35,28.673 -29.909,33.228 l -6.719,1.967 -6.072,13.841 3.553,6.48 c 8.006,14.603 6.731,32.644 -3.245,45.96 -8.094,10.802 -20.495,16.996 -34.026,16.995 -1.316,0 -2.624,-0.065 -3.924,-0.185 -0.244,-14.298 -4.598,-27.917 -12.511,-39.502 8.089,-11.899 12.448,-25.929 12.451,-40.635 l -30,-0.004 c -0.002,11.352 -4.422,22.023 -12.449,30.049 -8.026,8.027 -18.698,12.448 -30.05,12.448 -0.003,0 -0.005,30 -0.005,30 13.573,0 26.566,-3.715 37.843,-10.642 3.101,5.97 4.753,12.634 4.753,19.555 0,2.385 -0.208,4.768 -0.599,7.101 l -0.202,1.041 C 340.34,445.55 322.803,460 302.501,460 c -23.436,0 -42.502,-19.065 -42.502,-42.5 v -215 h 42.5 c 22.631,0 41.183,17.782 42.429,40.108 0.004,0.074 0.012,0.147 0.016,0.222 0.036,0.719 0.055,1.442 0.055,2.169 0,11.353 -4.421,22.025 -12.449,30.051 l 21.211,21.215 C 363.847,286.18 370.583,273.642 373.439,260 h 69.75 c 10.016,9.816 14.643,24.012 12.122,37.945 z"
        id="path1226" />
    </g>
  </g>
  <g
    style="opacity:0.3"
    transform="matrix(0.10647737,0,0,0.0961451,24.22103,50.973088)"
    id="g1231" />
  <g
    style="opacity:0.3"
    transform="matrix(0.10647737,0,0,0.0961451,24.22103,50.973088)"
    id="g1233" />
  <g
    style="opacity:0.3"
    transform="matrix(0.10647737,0,0,0.0961451,24.22103,50.973088)"
    id="g1235" />
  <g
    style="opacity:0.3"
    transform="matrix(0.10647737,0,0,0.0961451,24.22103,50.973088)"
    id="g1237" />
  <g
    style="opacity:0.3"
    transform="matrix(0.10647737,0,0,0.0961451,24.22103,50.973088)"
    id="g1239" />
  <g
    style="opacity:0.3"
    transform="matrix(0.10647737,0,0,0.0961451,24.22103,50.973088)"
    id="g1241" />
  <g
    style="opacity:0.3"
    transform="matrix(0.10647737,0,0,0.0961451,24.22103,50.973088)"
    id="g1243" />
  <g
    style="opacity:0.3"
    transform="matrix(0.10647737,0,0,0.0961451,24.22103,50.973088)"
    id="g1245" />
  <g
    style="opacity:0.3"
    transform="matrix(0.10647737,0,0,0.0961451,24.22103,50.973088)"
    id="g1247" />
  <g
    style="opacity:0.3"
    transform="matrix(0.10647737,0,0,0.0961451,24.22103,50.973088)"
    id="g1249" />
  <g
    style="opacity:0.3"
    transform="matrix(0.10647737,0,0,0.0961451,24.22103,50.973088)"
    id="g1251" />
  <g
    style="opacity:0.3"
    transform="matrix(0.10647737,0,0,0.0961451,24.22103,50.973088)"
    id="g1253" />
  <g
    style="opacity:0.3"
    transform="matrix(0.10647737,0,0,0.0961451,24.22103,50.973088)"
    id="g1255" />
  <g
    style="opacity:0.3"
    transform="matrix(0.10647737,0,0,0.0961451,24.22103,50.973088)"
    id="g1257" />
  <g
    style="opacity:0.3"
    transform="matrix(0.10647737,0,0,0.0961451,24.22103,50.973088)"
    id="g1259" />
</svg>
