<?xml version="1.0" encoding="iso-8859-1"?>
<!-- Generator: Adobe Illustrator 19.0.0, SVG Export Plug-In . SVG Version: 6.00 Build 0)  -->
<svg version="1.1" id="Layer_1" xmlns="http://www.w3.org/2000/svg" xmlns:xlink="http://www.w3.org/1999/xlink" x="0px" y="0px"
	 viewBox="0 0 490 490" style="enable-background:new 0 0 490 490;" xml:space="preserve">
<g id="XMLID_511_">
	<g>
		<path d="M470.025,244.991c12.987-16.198,18.582-37.435,14.796-58.317c-3.962-21.851-17.372-40.168-36.264-50.546
			c6.181-21.546,2.122-45.188-11.654-63.562c-13.628-18.171-35.332-29.02-58.059-29.02c-3.224,0-6.431,0.215-9.607,0.642
			C358.08,17.889,332.001,0,302.501,0c-23.396,0-44.237,11.137-57.502,28.389C231.734,11.137,210.893,0,187.497,0
			c-29.513,0-55.602,17.905-66.751,44.224c-3.184-0.426-6.401-0.64-9.641-0.64c-23.068,0-44.221,10.571-58.034,29.006
			c-13.766,18.374-17.82,42.014-11.641,63.557c-18.893,10.377-32.301,28.698-36.263,50.562c-3.777,20.877,1.822,42.106,14.806,58.3
			C6.986,261.207,1.39,282.443,5.177,303.327c3.962,21.851,17.372,40.167,36.263,50.544c-6.181,21.547-2.122,45.189,11.654,63.563
			c13.629,18.171,35.333,29.02,58.059,29.02c3.223,0,6.43-0.215,9.606-0.642c11.158,26.3,37.236,44.188,66.738,44.188
			c23.395,0,44.236-11.137,57.502-28.389C258.264,478.863,279.105,490,302.501,490c29.514,0,55.603-17.905,66.751-44.224
			c3.184,0.426,6.401,0.64,9.641,0.64c23.068,0,44.223-10.572,58.035-29.006c13.765-18.374,17.819-42.014,11.64-63.556
			c18.894-10.378,32.301-28.699,36.265-50.563C488.608,282.414,483.009,261.185,470.025,244.991z M229.999,417.5
			c0,23.435-19.067,42.5-42.502,42.5c-20.303,0-37.839-14.45-41.697-34.359l-0.204-1.052c-0.39-2.328-0.597-4.707-0.597-7.089
			c0-6.921,1.652-13.585,4.753-19.555c11.278,6.928,24.273,10.643,37.843,10.642l-0.002-30c-11.353,0.001-22.026-4.42-30.054-12.448
			c-8.026-8.026-12.447-18.697-12.448-30.049l-30,0.004c0.001,14.705,4.361,28.736,12.45,40.635
			c-7.921,11.596-12.275,25.229-12.512,39.542c-1.286,0.119-2.578,0.183-3.875,0.183c-13.533,0-25.947-6.203-34.058-17.018
			c-9.982-13.313-11.259-31.352-3.253-45.955l3.562-6.497l-6.065-13.821l-6.733-1.972c-15.561-4.557-27.021-17.284-29.91-33.216
			c-2.529-13.949,2.101-28.156,12.13-37.975h69.731c2.855,13.641,9.588,26.178,19.671,36.263
			c13.153,13.105,31.28,21.237,51.27,21.237h42.5V417.5z M229.999,287.5h-42.5c-22.631,0-41.183-17.782-42.429-40.108
			c-0.004-0.074-0.012-0.147-0.016-0.222c-0.036-0.719-0.055-1.442-0.055-2.169c0-11.353,4.422-22.025,12.449-30.051l-21.212-21.215
			C126.15,203.82,119.416,216.358,116.559,230h-69.75c-10.017-9.816-14.643-24.012-12.123-37.946
			c2.889-15.94,14.35-28.672,29.91-33.227l6.735-1.971l6.063-13.821l-3.562-6.496c-8.005-14.603-6.731-32.644,3.246-45.96
			c8.093-10.801,20.495-16.995,34.025-16.995c1.316,0,2.625,0.065,3.925,0.185c0.244,14.299,4.597,27.917,12.511,39.503
			c-8.089,11.899-12.449,25.929-12.45,40.635l30,0.004c0.001-11.352,4.422-22.022,12.448-30.049
			c8.028-8.027,18.7-12.448,30.051-12.448c0.003,0,0.005-30,0.005-30c-13.573,0-26.565,3.715-37.843,10.642
			c-3.1-5.971-4.751-12.635-4.751-19.556c0-2.373,0.206-4.744,0.593-7.063l0.209-1.077C149.658,44.45,167.195,30,187.497,30
			c23.435,0,42.502,19.065,42.502,42.5V287.5z M259.999,72.502c0-23.437,19.066-42.502,42.502-42.502
			c20.303,0,37.839,14.45,41.698,34.36l0.201,1.039c0.391,2.332,0.599,4.715,0.599,7.101c0,6.921-1.651,13.585-4.753,19.555
			c-11.278-6.927-24.273-10.643-37.843-10.642l0.002,30c11.353-0.001,22.025,4.42,30.054,12.449
			c8.026,8.024,12.446,18.696,12.448,30.048l30-0.004c-0.002-14.706-4.362-28.737-12.45-40.635
			c7.921-11.596,12.275-25.229,12.512-39.541c1.286-0.119,2.578-0.183,3.876-0.183c13.533,0,25.946,6.203,34.058,17.018
			c9.981,13.313,11.259,31.352,3.253,45.955l-3.57,6.513l3.015,6.787l3.06,7.019l6.733,1.972
			c15.561,4.557,27.021,17.284,29.909,33.217c2.53,13.948-2.1,28.156-12.131,37.974h-69.731
			c-2.855-13.641-9.588-26.178-19.672-36.264c-13.154-13.104-31.28-21.236-51.27-21.236h-42.5V72.502z M455.311,297.945
			c-2.89,15.941-14.35,28.673-29.909,33.228l-6.719,1.967l-6.072,13.841l3.553,6.48c8.006,14.603,6.731,32.644-3.245,45.96
			c-8.094,10.802-20.495,16.996-34.026,16.995c-1.316,0-2.624-0.065-3.924-0.185c-0.244-14.298-4.598-27.917-12.511-39.502
			c8.089-11.899,12.448-25.929,12.451-40.635l-30-0.004c-0.002,11.352-4.422,22.023-12.449,30.049
			c-8.026,8.027-18.698,12.448-30.05,12.448c-0.003,0-0.005,30-0.005,30c13.573,0,26.566-3.715,37.843-10.642
			c3.101,5.97,4.753,12.634,4.753,19.555c0,2.385-0.208,4.768-0.599,7.101l-0.202,1.041C340.34,445.55,322.803,460,302.501,460
			c-23.436,0-42.502-19.065-42.502-42.5v-215h42.5c22.631,0,41.183,17.782,42.429,40.108c0.004,0.074,0.012,0.147,0.016,0.222
			c0.036,0.719,0.055,1.442,0.055,2.169c0,11.353-4.421,22.025-12.449,30.051l21.211,21.215
			c10.086-10.085,16.822-22.623,19.678-36.265h69.75C453.205,269.816,457.832,284.012,455.311,297.945z"/>
	</g>
</g>
<g>
</g>
<g>
</g>
<g>
</g>
<g>
</g>
<g>
</g>
<g>
</g>
<g>
</g>
<g>
</g>
<g>
</g>
<g>
</g>
<g>
</g>
<g>
</g>
<g>
</g>
<g>
</g>
<g>
</g>
</svg>
